<?xml version="1.0" encoding="UTF-8" standalone="no"?>
<!DOCTYPE svg PUBLIC "-//W3C//DTD SVG 1.1//EN"
 "http://www.w3.org/Graphics/SVG/1.1/DTD/svg11.dtd">
<!-- Generated by graphviz version 2.40.1 (20161225.0304)
 -->
<!-- Title: controllers_diagram Pages: 1 -->
<svg width="882pt" height="879pt"
 viewBox="0.00 0.00 881.53 879.00" xmlns="http://www.w3.org/2000/svg" xmlns:xlink="http://www.w3.org/1999/xlink">
<g id="graph0" class="graph" transform="scale(1 1) rotate(0) translate(4 875)">
<title>controllers_diagram</title>
<polygon fill="transparent" stroke="transparent" points="-4,4 -4,-875 877.5313,-875 877.5313,4 -4,4"/>
<!-- _diagram_info -->
<g id="node1" class="node">
<title>_diagram_info</title>
<text text-anchor="start" x="653" y="-478.6" font-family="Times,serif" font-size="13.00" fill="#000000">Controllers diagram</text>
<text text-anchor="start" x="653" y="-465.6" font-family="Times,serif" font-size="13.00" fill="#000000">Date: May 28 2017 &#45; 18:34</text>
<text text-anchor="start" x="653" y="-452.6" font-family="Times,serif" font-size="13.00" fill="#000000">Migration version: 20170430090647</text>
<text text-anchor="start" x="653" y="-439.6" font-family="Times,serif" font-size="13.00" fill="#000000">Generated by RailRoady 1.5.2</text>
<text text-anchor="start" x="653" y="-426.6" font-family="Times,serif" font-size="13.00" fill="#000000">http://railroady.prestonlee.com</text>
</g>
<!-- AnswersController -->
<g id="node2" class="node">
<title>AnswersController</title>
<path fill="none" stroke="#000000" d="M507,-690.5C507,-690.5 605.5381,-690.5 605.5381,-690.5 611.5381,-690.5 617.5381,-696.5 617.5381,-702.5 617.5381,-702.5 617.5381,-796.5 617.5381,-796.5 617.5381,-802.5 611.5381,-808.5 605.5381,-808.5 605.5381,-808.5 507,-808.5 507,-808.5 501,-808.5 495,-802.5 495,-796.5 495,-796.5 495,-702.5 495,-702.5 495,-696.5 501,-690.5 507,-690.5"/>
<text text-anchor="middle" x="556.269" y="-793.3" font-family="Times,serif" font-size="14.00" fill="#000000">AnswersController</text>
<polyline fill="none" stroke="#000000" points="495,-786.5 617.5381,-786.5 "/>
<text text-anchor="start" x="503" y="-771.3" font-family="Times,serif" font-size="14.00" fill="#000000">create</text>
<text text-anchor="start" x="503" y="-757.3" font-family="Times,serif" font-size="14.00" fill="#000000">destroy</text>
<text text-anchor="start" x="503" y="-743.3" font-family="Times,serif" font-size="14.00" fill="#000000">update</text>
<polyline fill="none" stroke="#000000" points="495,-736.5 617.5381,-736.5 "/>
<polyline fill="none" stroke="#000000" points="495,-712.5 617.5381,-712.5 "/>
<text text-anchor="start" x="503" y="-697.3" font-family="Times,serif" font-size="14.00" fill="#000000">_layout</text>
</g>
<!-- ApplicationController -->
<g id="node3" class="node">
<title>ApplicationController</title>
<path fill="none" stroke="#000000" d="M282,-285.5C282,-285.5 437.29,-285.5 437.29,-285.5 443.29,-285.5 449.29,-291.5 449.29,-297.5 449.29,-297.5 449.29,-477.5 449.29,-477.5 449.29,-483.5 443.29,-489.5 437.29,-489.5 437.29,-489.5 282,-489.5 282,-489.5 276,-489.5 270,-483.5 270,-477.5 270,-477.5 270,-297.5 270,-297.5 270,-291.5 276,-285.5 282,-285.5"/>
<text text-anchor="middle" x="359.645" y="-474.3" font-family="Times,serif" font-size="14.00" fill="#000000">ApplicationController</text>
<polyline fill="none" stroke="#000000" points="270,-467.5 449.29,-467.5 "/>
<polyline fill="none" stroke="#000000" points="270,-443.5 449.29,-443.5 "/>
<polyline fill="none" stroke="#000000" points="270,-419.5 449.29,-419.5 "/>
<text text-anchor="start" x="278" y="-404.3" font-family="Times,serif" font-size="14.00" fill="#000000">set_locale</text>
<text text-anchor="start" x="278" y="-390.3" font-family="Times,serif" font-size="14.00" fill="#000000">authorize</text>
<text text-anchor="start" x="278" y="-376.3" font-family="Times,serif" font-size="14.00" fill="#000000">current_user</text>
<text text-anchor="start" x="278" y="-362.3" font-family="Times,serif" font-size="14.00" fill="#000000">default_url_options</text>
<text text-anchor="start" x="278" y="-348.3" font-family="Times,serif" font-size="14.00" fill="#000000">get_notification_size</text>
<text text-anchor="start" x="278" y="-334.3" font-family="Times,serif" font-size="14.00" fill="#000000">get_orientations</text>
<text text-anchor="start" x="278" y="-320.3" font-family="Times,serif" font-size="14.00" fill="#000000">get_programming_languages</text>
<text text-anchor="start" x="278" y="-306.3" font-family="Times,serif" font-size="14.00" fill="#000000">get_semesters</text>
<text text-anchor="start" x="278" y="-292.3" font-family="Times,serif" font-size="14.00" fill="#000000">_layout</text>
</g>
<!-- CompaniesController -->
<g id="node4" class="node">
<title>CompaniesController</title>
<path fill="none" stroke="#000000" d="M492,-285.5C492,-285.5 604.5381,-285.5 604.5381,-285.5 610.5381,-285.5 616.5381,-291.5 616.5381,-297.5 616.5381,-297.5 616.5381,-447.5 616.5381,-447.5 616.5381,-453.5 610.5381,-459.5 604.5381,-459.5 604.5381,-459.5 492,-459.5 492,-459.5 486,-459.5 480,-453.5 480,-447.5 480,-447.5 480,-297.5 480,-297.5 480,-291.5 486,-285.5 492,-285.5"/>
<text text-anchor="middle" x="548.269" y="-444.3" font-family="Times,serif" font-size="14.00" fill="#000000">CompaniesController</text>
<polyline fill="none" stroke="#000000" points="480,-437.5 616.5381,-437.5 "/>
<text text-anchor="start" x="488" y="-422.3" font-family="Times,serif" font-size="14.00" fill="#000000">index</text>
<text text-anchor="start" x="488" y="-408.3" font-family="Times,serif" font-size="14.00" fill="#000000">destroy</text>
<text text-anchor="start" x="488" y="-394.3" font-family="Times,serif" font-size="14.00" fill="#000000">edit</text>
<text text-anchor="start" x="488" y="-380.3" font-family="Times,serif" font-size="14.00" fill="#000000">create</text>
<text text-anchor="start" x="488" y="-366.3" font-family="Times,serif" font-size="14.00" fill="#000000">new</text>
<text text-anchor="start" x="488" y="-352.3" font-family="Times,serif" font-size="14.00" fill="#000000">show</text>
<text text-anchor="start" x="488" y="-338.3" font-family="Times,serif" font-size="14.00" fill="#000000">update</text>
<polyline fill="none" stroke="#000000" points="480,-331.5 616.5381,-331.5 "/>
<polyline fill="none" stroke="#000000" points="480,-307.5 616.5381,-307.5 "/>
<text text-anchor="start" x="488" y="-292.3" font-family="Times,serif" font-size="14.00" fill="#000000">_layout</text>
</g>
<!-- DownloadController -->
<g id="node5" class="node">
<title>DownloadController</title>
<path fill="none" stroke="#000000" d="M387,-30.5C387,-30.5 494.8691,-30.5 494.8691,-30.5 500.8691,-30.5 506.8691,-36.5 506.8691,-42.5 506.8691,-42.5 506.8691,-108.5 506.8691,-108.5 506.8691,-114.5 500.8691,-120.5 494.8691,-120.5 494.8691,-120.5 387,-120.5 387,-120.5 381,-120.5 375,-114.5 375,-108.5 375,-108.5 375,-42.5 375,-42.5 375,-36.5 381,-30.5 387,-30.5"/>
<text text-anchor="middle" x="440.9346" y="-105.3" font-family="Times,serif" font-size="14.00" fill="#000000">DownloadController</text>
<polyline fill="none" stroke="#000000" points="375,-98.5 506.8691,-98.5 "/>
<text text-anchor="start" x="383" y="-83.3" font-family="Times,serif" font-size="14.00" fill="#000000">index</text>
<polyline fill="none" stroke="#000000" points="375,-76.5 506.8691,-76.5 "/>
<polyline fill="none" stroke="#000000" points="375,-52.5 506.8691,-52.5 "/>
<text text-anchor="start" x="383" y="-37.3" font-family="Times,serif" font-size="14.00" fill="#000000">_layout</text>
</g>
<!-- ErrorsController -->
<g id="node6" class="node">
<title>ErrorsController</title>
<path fill="none" stroke="#000000" d="M777,-120.5C777,-120.5 861.5313,-120.5 861.5313,-120.5 867.5313,-120.5 873.5313,-126.5 873.5313,-132.5 873.5313,-132.5 873.5313,-198.5 873.5313,-198.5 873.5313,-204.5 867.5313,-210.5 861.5313,-210.5 861.5313,-210.5 777,-210.5 777,-210.5 771,-210.5 765,-204.5 765,-198.5 765,-198.5 765,-132.5 765,-132.5 765,-126.5 771,-120.5 777,-120.5"/>
<text text-anchor="middle" x="819.2656" y="-195.3" font-family="Times,serif" font-size="14.00" fill="#000000">ErrorsController</text>
<polyline fill="none" stroke="#000000" points="765,-188.5 873.5313,-188.5 "/>
<text text-anchor="start" x="773" y="-173.3" font-family="Times,serif" font-size="14.00" fill="#000000">not_found</text>
<polyline fill="none" stroke="#000000" points="765,-166.5 873.5313,-166.5 "/>
<polyline fill="none" stroke="#000000" points="765,-142.5 873.5313,-142.5 "/>
<text text-anchor="start" x="773" y="-127.3" font-family="Times,serif" font-size="14.00" fill="#000000">_layout</text>
</g>
<!-- FaqController -->
<g id="node7" class="node">
<title>FaqController</title>
<path fill="none" stroke="#000000" d="M12,-765.5C12,-765.5 82.5449,-765.5 82.5449,-765.5 88.5449,-765.5 94.5449,-771.5 94.5449,-777.5 94.5449,-777.5 94.5449,-843.5 94.5449,-843.5 94.5449,-849.5 88.5449,-855.5 82.5449,-855.5 82.5449,-855.5 12,-855.5 12,-855.5 6,-855.5 0,-849.5 0,-843.5 0,-843.5 0,-777.5 0,-777.5 0,-771.5 6,-765.5 12,-765.5"/>
<text text-anchor="middle" x="47.2725" y="-840.3" font-family="Times,serif" font-size="14.00" fill="#000000">FaqController</text>
<polyline fill="none" stroke="#000000" points="0,-833.5 94.5449,-833.5 "/>
<text text-anchor="start" x="8" y="-818.3" font-family="Times,serif" font-size="14.00" fill="#000000">index</text>
<polyline fill="none" stroke="#000000" points="0,-811.5 94.5449,-811.5 "/>
<polyline fill="none" stroke="#000000" points="0,-787.5 94.5449,-787.5 "/>
<text text-anchor="start" x="8" y="-772.3" font-family="Times,serif" font-size="14.00" fill="#000000">_layout</text>
</g>
<!-- FavoriteCompareController -->
<g id="node8" class="node">
<title>FavoriteCompareController</title>
<path fill="none" stroke="#000000" d="M132,-525.5C132,-525.5 279.5176,-525.5 279.5176,-525.5 285.5176,-525.5 291.5176,-531.5 291.5176,-537.5 291.5176,-537.5 291.5176,-603.5 291.5176,-603.5 291.5176,-609.5 285.5176,-615.5 279.5176,-615.5 279.5176,-615.5 132,-615.5 132,-615.5 126,-615.5 120,-609.5 120,-603.5 120,-603.5 120,-537.5 120,-537.5 120,-531.5 126,-525.5 132,-525.5"/>
<text text-anchor="middle" x="205.7588" y="-600.3" font-family="Times,serif" font-size="14.00" fill="#000000">FavoriteCompareController</text>
<polyline fill="none" stroke="#000000" points="120,-593.5 291.5176,-593.5 "/>
<text text-anchor="start" x="128" y="-578.3" font-family="Times,serif" font-size="14.00" fill="#000000">index</text>
<polyline fill="none" stroke="#000000" points="120,-571.5 291.5176,-571.5 "/>
<polyline fill="none" stroke="#000000" points="120,-547.5 291.5176,-547.5 "/>
<text text-anchor="start" x="128" y="-532.3" font-family="Times,serif" font-size="14.00" fill="#000000">_layout</text>
</g>
<!-- FavoriteController -->
<g id="node9" class="node">
<title>FavoriteController</title>
<path fill="none" stroke="#000000" d="M357,-735.5C357,-735.5 453.2002,-735.5 453.2002,-735.5 459.2002,-735.5 465.2002,-741.5 465.2002,-747.5 465.2002,-747.5 465.2002,-841.5 465.2002,-841.5 465.2002,-847.5 459.2002,-853.5 453.2002,-853.5 453.2002,-853.5 357,-853.5 357,-853.5 351,-853.5 345,-847.5 345,-841.5 345,-841.5 345,-747.5 345,-747.5 345,-741.5 351,-735.5 357,-735.5"/>
<text text-anchor="middle" x="405.1001" y="-838.3" font-family="Times,serif" font-size="14.00" fill="#000000">FavoriteController</text>
<polyline fill="none" stroke="#000000" points="345,-831.5 465.2002,-831.5 "/>
<text text-anchor="start" x="353" y="-816.3" font-family="Times,serif" font-size="14.00" fill="#000000">create</text>
<text text-anchor="start" x="353" y="-802.3" font-family="Times,serif" font-size="14.00" fill="#000000">destroy</text>
<text text-anchor="start" x="353" y="-788.3" font-family="Times,serif" font-size="14.00" fill="#000000">index</text>
<polyline fill="none" stroke="#000000" points="345,-781.5 465.2002,-781.5 "/>
<polyline fill="none" stroke="#000000" points="345,-757.5 465.2002,-757.5 "/>
<text text-anchor="start" x="353" y="-742.3" font-family="Times,serif" font-size="14.00" fill="#000000">_layout</text>
</g>
<!-- FinancingController -->
<g id="node10" class="node">
<title>FinancingController</title>
<path fill="none" stroke="#000000" d="M42,-45.5C42,-45.5 147.5381,-45.5 147.5381,-45.5 153.5381,-45.5 159.5381,-51.5 159.5381,-57.5 159.5381,-57.5 159.5381,-123.5 159.5381,-123.5 159.5381,-129.5 153.5381,-135.5 147.5381,-135.5 147.5381,-135.5 42,-135.5 42,-135.5 36,-135.5 30,-129.5 30,-123.5 30,-123.5 30,-57.5 30,-57.5 30,-51.5 36,-45.5 42,-45.5"/>
<text text-anchor="middle" x="94.769" y="-120.3" font-family="Times,serif" font-size="14.00" fill="#000000">FinancingController</text>
<polyline fill="none" stroke="#000000" points="30,-113.5 159.5381,-113.5 "/>
<text text-anchor="start" x="38" y="-98.3" font-family="Times,serif" font-size="14.00" fill="#000000">index</text>
<polyline fill="none" stroke="#000000" points="30,-91.5 159.5381,-91.5 "/>
<polyline fill="none" stroke="#000000" points="30,-67.5 159.5381,-67.5 "/>
<text text-anchor="start" x="38" y="-52.3" font-family="Times,serif" font-size="14.00" fill="#000000">_layout</text>
</g>
<!-- GeneralController -->
<g id="node11" class="node">
<title>GeneralController</title>
<path fill="none" stroke="#000000" d="M12,-255.5C12,-255.5 105.8486,-255.5 105.8486,-255.5 111.8486,-255.5 117.8486,-261.5 117.8486,-267.5 117.8486,-267.5 117.8486,-333.5 117.8486,-333.5 117.8486,-339.5 111.8486,-345.5 105.8486,-345.5 105.8486,-345.5 12,-345.5 12,-345.5 6,-345.5 0,-339.5 0,-333.5 0,-333.5 0,-267.5 0,-267.5 0,-261.5 6,-255.5 12,-255.5"/>
<text text-anchor="middle" x="58.9243" y="-330.3" font-family="Times,serif" font-size="14.00" fill="#000000">GeneralController</text>
<polyline fill="none" stroke="#000000" points="0,-323.5 117.8486,-323.5 "/>
<text text-anchor="start" x="8" y="-308.3" font-family="Times,serif" font-size="14.00" fill="#000000">index</text>
<polyline fill="none" stroke="#000000" points="0,-301.5 117.8486,-301.5 "/>
<polyline fill="none" stroke="#000000" points="0,-277.5 117.8486,-277.5 "/>
<text text-anchor="start" x="8" y="-262.3" font-family="Times,serif" font-size="14.00" fill="#000000">_layout</text>
</g>
<!-- InternshipOfferController -->
<g id="node12" class="node">
<title>InternshipOfferController</title>
<path fill="none" stroke="#000000" d="M657,-285.5C657,-285.5 793.375,-285.5 793.375,-285.5 799.375,-285.5 805.375,-291.5 805.375,-297.5 805.375,-297.5 805.375,-377.5 805.375,-377.5 805.375,-383.5 799.375,-389.5 793.375,-389.5 793.375,-389.5 657,-389.5 657,-389.5 651,-389.5 645,-383.5 645,-377.5 645,-377.5 645,-297.5 645,-297.5 645,-291.5 651,-285.5 657,-285.5"/>
<text text-anchor="middle" x="725.1875" y="-374.3" font-family="Times,serif" font-size="14.00" fill="#000000">InternshipOfferController</text>
<polyline fill="none" stroke="#000000" points="645,-367.5 805.375,-367.5 "/>
<text text-anchor="start" x="653" y="-352.3" font-family="Times,serif" font-size="14.00" fill="#000000">index</text>
<text text-anchor="start" x="653" y="-338.3" font-family="Times,serif" font-size="14.00" fill="#000000">show</text>
<polyline fill="none" stroke="#000000" points="645,-331.5 805.375,-331.5 "/>
<polyline fill="none" stroke="#000000" points="645,-307.5 805.375,-307.5 "/>
<text text-anchor="start" x="653" y="-292.3" font-family="Times,serif" font-size="14.00" fill="#000000">_layout</text>
</g>
<!-- InternshipRatingsController -->
<g id="node13" class="node">
<title>InternshipRatingsController</title>
<path fill="none" stroke="#000000" d="M162,-165.5C162,-165.5 311.0898,-165.5 311.0898,-165.5 317.0898,-165.5 323.0898,-171.5 323.0898,-177.5 323.0898,-177.5 323.0898,-245.5 323.0898,-245.5 323.0898,-251.5 317.0898,-257.5 311.0898,-257.5 311.0898,-257.5 162,-257.5 162,-257.5 156,-257.5 150,-251.5 150,-245.5 150,-245.5 150,-177.5 150,-177.5 150,-171.5 156,-165.5 162,-165.5"/>
<text text-anchor="middle" x="236.5449" y="-242.3" font-family="Times,serif" font-size="14.00" fill="#000000">InternshipRatingsController</text>
<polyline fill="none" stroke="#000000" points="150,-235.5 323.0898,-235.5 "/>
<polyline fill="none" stroke="#000000" points="150,-211.5 323.0898,-211.5 "/>
<polyline fill="none" stroke="#000000" points="150,-187.5 323.0898,-187.5 "/>
<text text-anchor="start" x="158" y="-172.3" font-family="Times,serif" font-size="14.00" fill="#000000">_layout</text>
</g>
<!-- InternshipsController -->
<g id="node14" class="node">
<title>InternshipsController</title>
<path fill="none" stroke="#000000" d="M492,-495.5C492,-495.5 603.7588,-495.5 603.7588,-495.5 609.7588,-495.5 615.7588,-501.5 615.7588,-507.5 615.7588,-507.5 615.7588,-643.5 615.7588,-643.5 615.7588,-649.5 609.7588,-655.5 603.7588,-655.5 603.7588,-655.5 492,-655.5 492,-655.5 486,-655.5 480,-649.5 480,-643.5 480,-643.5 480,-507.5 480,-507.5 480,-501.5 486,-495.5 492,-495.5"/>
<text text-anchor="middle" x="547.8794" y="-640.3" font-family="Times,serif" font-size="14.00" fill="#000000">InternshipsController</text>
<polyline fill="none" stroke="#000000" points="480,-633.5 615.7588,-633.5 "/>
<text text-anchor="start" x="488" y="-618.3" font-family="Times,serif" font-size="14.00" fill="#000000">destroy</text>
<text text-anchor="start" x="488" y="-604.3" font-family="Times,serif" font-size="14.00" fill="#000000">edit</text>
<text text-anchor="start" x="488" y="-590.3" font-family="Times,serif" font-size="14.00" fill="#000000">index</text>
<text text-anchor="start" x="488" y="-576.3" font-family="Times,serif" font-size="14.00" fill="#000000">show</text>
<text text-anchor="start" x="488" y="-562.3" font-family="Times,serif" font-size="14.00" fill="#000000">update</text>
<polyline fill="none" stroke="#000000" points="480,-555.5 615.7588,-555.5 "/>
<polyline fill="none" stroke="#000000" points="480,-531.5 615.7588,-531.5 "/>
<text text-anchor="start" x="488" y="-516.3" font-family="Times,serif" font-size="14.00" fill="#000000">_layout</text>
<text text-anchor="start" x="488" y="-502.3" font-family="Times,serif" font-size="14.00" fill="#000000">authorize_internship</text>
</g>
<!-- NoPathController -->
<g id="node15" class="node">
<title>NoPathController</title>
<path fill="none" stroke="#000000" d="M552,-.5C552,-.5 643.5449,-.5 643.5449,-.5 649.5449,-.5 655.5449,-6.5 655.5449,-12.5 655.5449,-12.5 655.5449,-78.5 655.5449,-78.5 655.5449,-84.5 649.5449,-90.5 643.5449,-90.5 643.5449,-90.5 552,-90.5 552,-90.5 546,-90.5 540,-84.5 540,-78.5 540,-78.5 540,-12.5 540,-12.5 540,-6.5 546,-.5 552,-.5"/>
<text text-anchor="middle" x="597.7725" y="-75.3" font-family="Times,serif" font-size="14.00" fill="#000000">NoPathController</text>
<polyline fill="none" stroke="#000000" points="540,-68.5 655.5449,-68.5 "/>
<text text-anchor="start" x="548" y="-53.3" font-family="Times,serif" font-size="14.00" fill="#000000">index</text>
<polyline fill="none" stroke="#000000" points="540,-46.5 655.5449,-46.5 "/>
<polyline fill="none" stroke="#000000" points="540,-22.5 655.5449,-22.5 "/>
<text text-anchor="start" x="548" y="-7.3" font-family="Times,serif" font-size="14.00" fill="#000000">_layout</text>
</g>
<!-- NotificationsController -->
<g id="node16" class="node">
<title>NotificationsController</title>
<path fill="none" stroke="#000000" d="M657,-645.5C657,-645.5 778.876,-645.5 778.876,-645.5 784.876,-645.5 790.876,-651.5 790.876,-657.5 790.876,-657.5 790.876,-737.5 790.876,-737.5 790.876,-743.5 784.876,-749.5 778.876,-749.5 778.876,-749.5 657,-749.5 657,-749.5 651,-749.5 645,-743.5 645,-737.5 645,-737.5 645,-657.5 645,-657.5 645,-651.5 651,-645.5 657,-645.5"/>
<text text-anchor="middle" x="717.938" y="-734.3" font-family="Times,serif" font-size="14.00" fill="#000000">NotificationsController</text>
<polyline fill="none" stroke="#000000" points="645,-727.5 790.876,-727.5 "/>
<text text-anchor="start" x="653" y="-712.3" font-family="Times,serif" font-size="14.00" fill="#000000">destroy</text>
<text text-anchor="start" x="653" y="-698.3" font-family="Times,serif" font-size="14.00" fill="#000000">show</text>
<polyline fill="none" stroke="#000000" points="645,-691.5 790.876,-691.5 "/>
<polyline fill="none" stroke="#000000" points="645,-667.5 790.876,-667.5 "/>
<text text-anchor="start" x="653" y="-652.3" font-family="Times,serif" font-size="14.00" fill="#000000">_layout</text>
</g>
<!-- OverviewController -->
<g id="node17" class="node">
<title>OverviewController</title>
<path fill="none" stroke="#000000" d="M207,-45.5C207,-45.5 311.7451,-45.5 311.7451,-45.5 317.7451,-45.5 323.7451,-51.5 323.7451,-57.5 323.7451,-57.5 323.7451,-123.5 323.7451,-123.5 323.7451,-129.5 317.7451,-135.5 311.7451,-135.5 311.7451,-135.5 207,-135.5 207,-135.5 201,-135.5 195,-129.5 195,-123.5 195,-123.5 195,-57.5 195,-57.5 195,-51.5 201,-45.5 207,-45.5"/>
<text text-anchor="middle" x="259.3726" y="-120.3" font-family="Times,serif" font-size="14.00" fill="#000000">OverviewController</text>
<polyline fill="none" stroke="#000000" points="195,-113.5 323.7451,-113.5 "/>
<text text-anchor="start" x="203" y="-98.3" font-family="Times,serif" font-size="14.00" fill="#000000">index</text>
<polyline fill="none" stroke="#000000" points="195,-91.5 323.7451,-91.5 "/>
<polyline fill="none" stroke="#000000" points="195,-67.5 323.7451,-67.5 "/>
<text text-anchor="start" x="203" y="-52.3" font-family="Times,serif" font-size="14.00" fill="#000000">_layout</text>
</g>
<!-- PageController -->
<g id="node18" class="node">
<title>PageController</title>
<path fill="none" stroke="#000000" d="M777,-780.5C777,-780.5 853.7588,-780.5 853.7588,-780.5 859.7588,-780.5 865.7588,-786.5 865.7588,-792.5 865.7588,-792.5 865.7588,-858.5 865.7588,-858.5 865.7588,-864.5 859.7588,-870.5 853.7588,-870.5 853.7588,-870.5 777,-870.5 777,-870.5 771,-870.5 765,-864.5 765,-858.5 765,-858.5 765,-792.5 765,-792.5 765,-786.5 771,-780.5 777,-780.5"/>
<text text-anchor="middle" x="815.3794" y="-855.3" font-family="Times,serif" font-size="14.00" fill="#000000">PageController</text>
<polyline fill="none" stroke="#000000" points="765,-848.5 865.7588,-848.5 "/>
<text text-anchor="start" x="773" y="-833.3" font-family="Times,serif" font-size="14.00" fill="#000000">index</text>
<polyline fill="none" stroke="#000000" points="765,-826.5 865.7588,-826.5 "/>
<polyline fill="none" stroke="#000000" points="765,-802.5 865.7588,-802.5 "/>
<text text-anchor="start" x="773" y="-787.3" font-family="Times,serif" font-size="14.00" fill="#000000">_layout</text>
</g>
<!-- PasswordResetsController -->
<g id="node19" class="node">
<title>PasswordResetsController</title>
<path fill="none" stroke="#000000" d="M582,-120.5C582,-120.5 721.7656,-120.5 721.7656,-120.5 727.7656,-120.5 733.7656,-126.5 733.7656,-132.5 733.7656,-132.5 733.7656,-240.5 733.7656,-240.5 733.7656,-246.5 727.7656,-252.5 721.7656,-252.5 721.7656,-252.5 582,-252.5 582,-252.5 576,-252.5 570,-246.5 570,-240.5 570,-240.5 570,-132.5 570,-132.5 570,-126.5 576,-120.5 582,-120.5"/>
<text text-anchor="middle" x="651.8828" y="-237.3" font-family="Times,serif" font-size="14.00" fill="#000000">PasswordResetsController</text>
<polyline fill="none" stroke="#000000" points="570,-230.5 733.7656,-230.5 "/>
<text text-anchor="start" x="578" y="-215.3" font-family="Times,serif" font-size="14.00" fill="#000000">create</text>
<text text-anchor="start" x="578" y="-201.3" font-family="Times,serif" font-size="14.00" fill="#000000">edit</text>
<text text-anchor="start" x="578" y="-187.3" font-family="Times,serif" font-size="14.00" fill="#000000">new</text>
<text text-anchor="start" x="578" y="-173.3" font-family="Times,serif" font-size="14.00" fill="#000000">update</text>
<polyline fill="none" stroke="#000000" points="570,-166.5 733.7656,-166.5 "/>
<polyline fill="none" stroke="#000000" points="570,-142.5 733.7656,-142.5 "/>
<text text-anchor="start" x="578" y="-127.3" font-family="Times,serif" font-size="14.00" fill="#000000">_layout</text>
</g>
<!-- QuicksearchesController -->
<g id="node20" class="node">
<title>QuicksearchesController</title>
<path fill="none" stroke="#000000" d="M657,-525.5C657,-525.5 788.1729,-525.5 788.1729,-525.5 794.1729,-525.5 800.1729,-531.5 800.1729,-537.5 800.1729,-537.5 800.1729,-603.5 800.1729,-603.5 800.1729,-609.5 794.1729,-615.5 788.1729,-615.5 788.1729,-615.5 657,-615.5 657,-615.5 651,-615.5 645,-609.5 645,-603.5 645,-603.5 645,-537.5 645,-537.5 645,-531.5 651,-525.5 657,-525.5"/>
<text text-anchor="middle" x="722.5864" y="-600.3" font-family="Times,serif" font-size="14.00" fill="#000000">QuicksearchesController</text>
<polyline fill="none" stroke="#000000" points="645,-593.5 800.1729,-593.5 "/>
<text text-anchor="start" x="653" y="-578.3" font-family="Times,serif" font-size="14.00" fill="#000000">index</text>
<polyline fill="none" stroke="#000000" points="645,-571.5 800.1729,-571.5 "/>
<polyline fill="none" stroke="#000000" points="645,-547.5 800.1729,-547.5 "/>
<text text-anchor="start" x="653" y="-532.3" font-family="Times,serif" font-size="14.00" fill="#000000">_layout</text>
</g>
<!-- SearchController -->
<g id="node21" class="node">
<title>SearchController</title>
<path fill="none" stroke="#000000" d="M702,-.5C702,-.5 789.6348,-.5 789.6348,-.5 795.6348,-.5 801.6348,-6.5 801.6348,-12.5 801.6348,-12.5 801.6348,-78.5 801.6348,-78.5 801.6348,-84.5 795.6348,-90.5 789.6348,-90.5 789.6348,-90.5 702,-90.5 702,-90.5 696,-90.5 690,-84.5 690,-78.5 690,-78.5 690,-12.5 690,-12.5 690,-6.5 696,-.5 702,-.5"/>
<text text-anchor="middle" x="745.8174" y="-75.3" font-family="Times,serif" font-size="14.00" fill="#000000">SearchController</text>
<polyline fill="none" stroke="#000000" points="690,-68.5 801.6348,-68.5 "/>
<text text-anchor="start" x="698" y="-53.3" font-family="Times,serif" font-size="14.00" fill="#000000">index</text>
<polyline fill="none" stroke="#000000" points="690,-46.5 801.6348,-46.5 "/>
<polyline fill="none" stroke="#000000" points="690,-22.5 801.6348,-22.5 "/>
<text text-anchor="start" x="698" y="-7.3" font-family="Times,serif" font-size="14.00" fill="#000000">_layout</text>
</g>
<!-- SessionsController -->
<g id="node22" class="node">
<title>SessionsController</title>
<path fill="none" stroke="#000000" d="M132,-375.5C132,-375.5 229.7793,-375.5 229.7793,-375.5 235.7793,-375.5 241.7793,-381.5 241.7793,-387.5 241.7793,-387.5 241.7793,-481.5 241.7793,-481.5 241.7793,-487.5 235.7793,-493.5 229.7793,-493.5 229.7793,-493.5 132,-493.5 132,-493.5 126,-493.5 120,-487.5 120,-481.5 120,-481.5 120,-387.5 120,-387.5 120,-381.5 126,-375.5 132,-375.5"/>
<text text-anchor="middle" x="180.8896" y="-478.3" font-family="Times,serif" font-size="14.00" fill="#000000">SessionsController</text>
<polyline fill="none" stroke="#000000" points="120,-471.5 241.7793,-471.5 "/>
<text text-anchor="start" x="128" y="-456.3" font-family="Times,serif" font-size="14.00" fill="#000000">create</text>
<text text-anchor="start" x="128" y="-442.3" font-family="Times,serif" font-size="14.00" fill="#000000">destroy</text>
<text text-anchor="start" x="128" y="-428.3" font-family="Times,serif" font-size="14.00" fill="#000000">new</text>
<polyline fill="none" stroke="#000000" points="120,-421.5 241.7793,-421.5 "/>
<polyline fill="none" stroke="#000000" points="120,-397.5 241.7793,-397.5 "/>
<text text-anchor="start" x="128" y="-382.3" font-family="Times,serif" font-size="14.00" fill="#000000">_layout</text>
</g>
<!-- UserCommentsController -->
<g id="node23" class="node">
<title>UserCommentsController</title>
<path fill="none" stroke="#000000" d="M132,-645.5C132,-645.5 268.6484,-645.5 268.6484,-645.5 274.6484,-645.5 280.6484,-651.5 280.6484,-657.5 280.6484,-657.5 280.6484,-765.5 280.6484,-765.5 280.6484,-771.5 274.6484,-777.5 268.6484,-777.5 268.6484,-777.5 132,-777.5 132,-777.5 126,-777.5 120,-771.5 120,-765.5 120,-765.5 120,-657.5 120,-657.5 120,-651.5 126,-645.5 132,-645.5"/>
<text text-anchor="middle" x="200.3242" y="-762.3" font-family="Times,serif" font-size="14.00" fill="#000000">UserCommentsController</text>
<polyline fill="none" stroke="#000000" points="120,-755.5 280.6484,-755.5 "/>
<text text-anchor="start" x="128" y="-740.3" font-family="Times,serif" font-size="14.00" fill="#000000">create</text>
<text text-anchor="start" x="128" y="-726.3" font-family="Times,serif" font-size="14.00" fill="#000000">destroy</text>
<text text-anchor="start" x="128" y="-712.3" font-family="Times,serif" font-size="14.00" fill="#000000">new</text>
<text text-anchor="start" x="128" y="-698.3" font-family="Times,serif" font-size="14.00" fill="#000000">update</text>
<polyline fill="none" stroke="#000000" points="120,-691.5 280.6484,-691.5 "/>
<polyline fill="none" stroke="#000000" points="120,-667.5 280.6484,-667.5 "/>
<text text-anchor="start" x="128" y="-652.3" font-family="Times,serif" font-size="14.00" fill="#000000">_layout</text>
</g>
<!-- UserVerificationsController -->
<g id="node24" class="node">
<title>UserVerificationsController</title>
<path fill="none" stroke="#000000" d="M387,-150.5C387,-150.5 533.7451,-150.5 533.7451,-150.5 539.7451,-150.5 545.7451,-156.5 545.7451,-162.5 545.7451,-162.5 545.7451,-242.5 545.7451,-242.5 545.7451,-248.5 539.7451,-254.5 533.7451,-254.5 533.7451,-254.5 387,-254.5 387,-254.5 381,-254.5 375,-248.5 375,-242.5 375,-242.5 375,-162.5 375,-162.5 375,-156.5 381,-150.5 387,-150.5"/>
<text text-anchor="middle" x="460.3726" y="-239.3" font-family="Times,serif" font-size="14.00" fill="#000000">UserVerificationsController</text>
<polyline fill="none" stroke="#000000" points="375,-232.5 545.7451,-232.5 "/>
<text text-anchor="start" x="383" y="-217.3" font-family="Times,serif" font-size="14.00" fill="#000000">create</text>
<text text-anchor="start" x="383" y="-203.3" font-family="Times,serif" font-size="14.00" fill="#000000">new</text>
<polyline fill="none" stroke="#000000" points="375,-196.5 545.7451,-196.5 "/>
<polyline fill="none" stroke="#000000" points="375,-172.5 545.7451,-172.5 "/>
<text text-anchor="start" x="383" y="-157.3" font-family="Times,serif" font-size="14.00" fill="#000000">_layout</text>
</g>
<!-- UsersController -->
<g id="node25" class="node">
<title>UsersController</title>
<path fill="none" stroke="#000000" d="M327,-525.5C327,-525.5 433.2969,-525.5 433.2969,-525.5 439.2969,-525.5 445.2969,-531.5 445.2969,-537.5 445.2969,-537.5 445.2969,-687.5 445.2969,-687.5 445.2969,-693.5 439.2969,-699.5 433.2969,-699.5 433.2969,-699.5 327,-699.5 327,-699.5 321,-699.5 315,-693.5 315,-687.5 315,-687.5 315,-537.5 315,-537.5 315,-531.5 321,-525.5 327,-525.5"/>
<text text-anchor="middle" x="380.1484" y="-684.3" font-family="Times,serif" font-size="14.00" fill="#000000">UsersController</text>
<polyline fill="none" stroke="#000000" points="315,-677.5 445.2969,-677.5 "/>
<text text-anchor="start" x="323" y="-662.3" font-family="Times,serif" font-size="14.00" fill="#000000">create</text>
<text text-anchor="start" x="323" y="-648.3" font-family="Times,serif" font-size="14.00" fill="#000000">edit</text>
<text text-anchor="start" x="323" y="-634.3" font-family="Times,serif" font-size="14.00" fill="#000000">new</text>
<text text-anchor="start" x="323" y="-620.3" font-family="Times,serif" font-size="14.00" fill="#000000">show</text>
<text text-anchor="start" x="323" y="-606.3" font-family="Times,serif" font-size="14.00" fill="#000000">update</text>
<polyline fill="none" stroke="#000000" points="315,-599.5 445.2969,-599.5 "/>
<polyline fill="none" stroke="#000000" points="315,-575.5 445.2969,-575.5 "/>
<text text-anchor="start" x="323" y="-560.3" font-family="Times,serif" font-size="14.00" fill="#000000">_layout</text>
<text text-anchor="start" x="323" y="-546.3" font-family="Times,serif" font-size="14.00" fill="#000000">check_existing_user</text>
<text text-anchor="start" x="323" y="-532.3" font-family="Times,serif" font-size="14.00" fill="#000000">check_permission</text>
</g>
</g>
</svg>
