<?xml version="1.0" encoding="UTF-8" standalone="no"?>
<!DOCTYPE svg PUBLIC "-//W3C//DTD SVG 1.1//EN"
 "http://www.w3.org/Graphics/SVG/1.1/DTD/svg11.dtd">
<!-- Generated by graphviz version 2.40.1 (20161225.0304)
 -->
<!-- Title: models_diagram Pages: 1 -->
<svg width="2629pt" height="297pt"
 viewBox="0.00 0.00 2628.99 297.00" xmlns="http://www.w3.org/2000/svg" xmlns:xlink="http://www.w3.org/1999/xlink">
<g id="graph0" class="graph" transform="scale(1 1) rotate(0) translate(4 293)">
<title>models_diagram</title>
<polygon fill="transparent" stroke="transparent" points="-4,4 -4,-293 2624.9903,-293 2624.9903,4 -4,4"/>
<!-- _diagram_info -->
<g id="node1" class="node">
<title>_diagram_info</title>
<text text-anchor="start" x="8" y="-274.6" font-family="Times,serif" font-size="13.00" fill="#000000">Models diagram</text>
<text text-anchor="start" x="8" y="-261.6" font-family="Times,serif" font-size="13.00" fill="#000000">Date: May 28 2017 &#45; 18:33</text>
<text text-anchor="start" x="8" y="-248.6" font-family="Times,serif" font-size="13.00" fill="#000000">Migration version: 20170430090647</text>
<text text-anchor="start" x="8" y="-235.6" font-family="Times,serif" font-size="13.00" fill="#000000">Generated by RailRoady 1.5.2</text>
<text text-anchor="start" x="8" y="-222.6" font-family="Times,serif" font-size="13.00" fill="#000000">http://railroady.prestonlee.com</text>
</g>
<!-- AdminUser -->
<g id="node2" class="node">
<title>AdminUser</title>
<ellipse fill="none" stroke="#000000" cx="276.6877" cy="-252.5" rx="51.2415" ry="18"/>
<text text-anchor="middle" x="276.6877" y="-248.3" font-family="Times,serif" font-size="14.00" fill="#000000">AdminUser</text>
</g>
<!-- Answer -->
<g id="node3" class="node">
<title>Answer</title>
<ellipse fill="none" stroke="#000000" cx="1288.6877" cy="-18" rx="37.7266" ry="18"/>
<text text-anchor="middle" x="1288.6877" y="-13.8" font-family="Times,serif" font-size="14.00" fill="#000000">Answer</text>
</g>
<!-- Attachment -->
<g id="node4" class="node">
<title>Attachment</title>
<ellipse fill="none" stroke="#000000" cx="1160.6877" cy="-90" rx="51.2242" ry="18"/>
<text text-anchor="middle" x="1160.6877" y="-85.8" font-family="Times,serif" font-size="14.00" fill="#000000">Attachment</text>
</g>
<!-- CertificateState -->
<g id="node5" class="node">
<title>CertificateState</title>
<ellipse fill="none" stroke="#000000" cx="1479.6877" cy="-252.5" rx="64.7459" ry="18"/>
<text text-anchor="middle" x="1479.6877" y="-248.3" font-family="Times,serif" font-size="14.00" fill="#000000">CertificateState</text>
</g>
<!-- Internship -->
<g id="node10" class="node">
<title>Internship</title>
<ellipse fill="none" stroke="#000000" cx="1242.6877" cy="-162" rx="45.9286" ry="18"/>
<text text-anchor="middle" x="1242.6877" y="-157.8" font-family="Times,serif" font-size="14.00" fill="#000000">Internship</text>
</g>
<!-- CertificateState&#45;&gt;Internship -->
<g id="edge1" class="edge">
<title>CertificateState&#45;&gt;Internship</title>
<path fill="none" stroke="#33f88f" d="M1442.6805,-232.69C1431.295,-226.952 1418.6167,-220.9155 1406.6877,-216 1368.1334,-200.1129 1323.0538,-185.5467 1289.9249,-175.557"/>
<ellipse fill="none" stroke="#33f88f" cx="1446.3921" cy="-234.5844" rx="4" ry="4"/>
<polygon fill="#33f88f" stroke="#33f88f" points="1289.6294,-175.4688 1281.3353,-168.2954 1284.8385,-174.0381 1280.0476,-172.6073 1280.0476,-172.6073 1280.0476,-172.6073 1284.8385,-174.0381 1278.7599,-176.9191 1289.6294,-175.4688 1289.6294,-175.4688"/>
</g>
<!-- Company -->
<g id="node6" class="node">
<title>Company</title>
<ellipse fill="none" stroke="#000000" cx="1606.6877" cy="-252.5" rx="44.4923" ry="18"/>
<text text-anchor="middle" x="1606.6877" y="-248.3" font-family="Times,serif" font-size="14.00" fill="#000000">Company</text>
</g>
<!-- Company&#45;&gt;Internship -->
<g id="edge2" class="edge">
<title>Company&#45;&gt;Internship</title>
<path fill="none" stroke="#6528c2" d="M1580.6468,-231.2738C1572.441,-225.5173 1563.0619,-219.826 1553.6877,-216 1469.0984,-181.4758 1362.7845,-169.0165 1298.9181,-164.5253"/>
<ellipse fill="none" stroke="#6528c2" cx="1584.007" cy="-233.7266" rx="4" ry="4"/>
<polygon fill="#6528c2" stroke="#6528c2" points="1298.6357,-164.5067 1288.9544,-159.3566 1293.6466,-164.1767 1288.6575,-163.8468 1288.6575,-163.8468 1288.6575,-163.8468 1293.6466,-164.1767 1288.3605,-168.337 1298.6357,-164.5067 1298.6357,-164.5067"/>
</g>
<!-- ContractState -->
<g id="node7" class="node">
<title>ContractState</title>
<ellipse fill="none" stroke="#000000" cx="1727.6877" cy="-252.5" rx="58.4823" ry="18"/>
<text text-anchor="middle" x="1727.6877" y="-248.3" font-family="Times,serif" font-size="14.00" fill="#000000">ContractState</text>
</g>
<!-- ContractState&#45;&gt;Internship -->
<g id="edge3" class="edge">
<title>ContractState&#45;&gt;Internship</title>
<path fill="none" stroke="#c2154e" d="M1695.5472,-232.1528C1684.5527,-226.0455 1671.9317,-219.9315 1659.6877,-216 1593.5484,-194.7625 1395.2831,-175.2574 1297.8953,-166.6463"/>
<ellipse fill="none" stroke="#c2154e" cx="1699.0453" cy="-234.1551" rx="4" ry="4"/>
<polygon fill="#c2154e" stroke="#c2154e" points="1297.6245,-166.6227 1288.0559,-161.2661 1292.6436,-166.1858 1287.6627,-165.7489 1287.6627,-165.7489 1287.6627,-165.7489 1292.6436,-166.1858 1287.2695,-170.2316 1297.6245,-166.6227 1297.6245,-166.6227"/>
</g>
<!-- DatabaseParser -->
<g id="node8" class="node">
<title>DatabaseParser</title>
<polygon fill="none" stroke="#000000" points="1997.9782,-270.5 1895.3973,-270.5 1895.3973,-234.5 1997.9782,-234.5 1997.9782,-270.5"/>
<text text-anchor="middle" x="1946.6877" y="-248.3" font-family="Times,serif" font-size="14.00" fill="#000000">DatabaseParser</text>
</g>
<!-- Favorite -->
<g id="node9" class="node">
<title>Favorite</title>
<ellipse fill="none" stroke="#000000" cx="1615.6877" cy="-90" rx="39.6558" ry="18"/>
<text text-anchor="middle" x="1615.6877" y="-85.8" font-family="Times,serif" font-size="14.00" fill="#000000">Favorite</text>
</g>
<!-- Internship&#45;&gt;Answer -->
<g id="edge8" class="edge">
<title>Internship&#45;&gt;Answer</title>
<path fill="none" stroke="#ad8240" d="M1195.3519,-150.2027C1158.5394,-139.9581 1111.8935,-124.25 1100.6877,-108 1091.6046,-94.8282 1091.0616,-84.7803 1100.6877,-72 1117.7469,-49.3511 1192.549,-33.2726 1242.5006,-24.8302"/>
<ellipse fill="none" stroke="#ad8240" cx="1199.6572" cy="-151.3779" rx="4" ry="4"/>
<polygon fill="#ad8240" stroke="#ad8240" points="1242.5764,-24.8178 1253.1743,-27.6347 1247.5101,-24.0061 1252.4438,-23.1943 1252.4438,-23.1943 1252.4438,-23.1943 1247.5101,-24.0061 1251.7132,-18.754 1242.5764,-24.8178 1242.5764,-24.8178"/>
</g>
<!-- Internship&#45;&gt;Attachment -->
<g id="edge7" class="edge">
<title>Internship&#45;&gt;Attachment</title>
<path fill="none" stroke="#a1ed16" d="M1217.5568,-139.9338C1208.0853,-131.6174 1197.2778,-122.1278 1187.6461,-113.6708"/>
<ellipse fill="none" stroke="#a1ed16" cx="1220.6634" cy="-142.6616" rx="4" ry="4"/>
<polygon fill="#a1ed16" stroke="#a1ed16" points="1187.4016,-113.4561 1182.8563,-103.4766 1183.6444,-110.1571 1179.8872,-106.8581 1179.8872,-106.8581 1179.8872,-106.8581 1183.6444,-110.1571 1176.9181,-110.2396 1187.4016,-113.4561 1187.4016,-113.4561"/>
</g>
<!-- Internship&#45;&gt;Favorite -->
<g id="edge6" class="edge">
<title>Internship&#45;&gt;Favorite</title>
<path fill="none" stroke="#fbb832" d="M1295.206,-156.4551C1360.0209,-148.8874 1473.2448,-133.2969 1567.6877,-108 1570.6443,-107.2081 1573.6727,-106.3041 1576.7004,-105.3324"/>
<ellipse fill="none" stroke="#fbb832" cx="1291.1343" cy="-156.9242" rx="4" ry="4"/>
<polygon fill="#fbb832" stroke="#fbb832" points="1576.8182,-105.2922 1587.7367,-106.3103 1581.5486,-103.6725 1586.279,-102.0529 1586.279,-102.0529 1586.279,-102.0529 1581.5486,-103.6725 1584.8214,-97.7955 1576.8182,-105.2922 1576.8182,-105.2922"/>
</g>
<!-- ProgrammingLanguage -->
<g id="node19" class="node">
<title>ProgrammingLanguage</title>
<ellipse fill="none" stroke="#000000" cx="1323.6877" cy="-90" rx="93.7119" ry="18"/>
<text text-anchor="middle" x="1323.6877" y="-85.8" font-family="Times,serif" font-size="14.00" fill="#000000">ProgrammingLanguage</text>
</g>
<!-- Internship&#45;&gt;ProgrammingLanguage -->
<g id="edge4" class="edge">
<title>Internship&#45;&gt;ProgrammingLanguage</title>
<path fill="none" stroke="#335dc8" d="M1269.0001,-138.6112C1277.769,-130.8167 1287.5535,-122.1193 1296.3951,-114.2602"/>
<polygon fill="#335dc8" stroke="#335dc8" points="1268.9485,-138.6571 1258.4847,-141.9374 1265.2114,-141.9789 1261.4744,-145.3008 1261.4744,-145.3008 1261.4744,-145.3008 1265.2114,-141.9789 1264.464,-148.6641 1268.9485,-138.6571 1268.9485,-138.6571"/>
<polygon fill="#335dc8" stroke="#335dc8" points="1296.3988,-114.2569 1306.8626,-110.9765 1300.1359,-110.935 1303.8729,-107.6132 1303.8729,-107.6132 1303.8729,-107.6132 1300.1359,-110.935 1300.8833,-104.2498 1296.3988,-114.2569 1296.3988,-114.2569"/>
</g>
<!-- UserComment -->
<g id="node27" class="node">
<title>UserComment</title>
<ellipse fill="none" stroke="#000000" cx="1496.6877" cy="-90" rx="61.8736" ry="18"/>
<text text-anchor="middle" x="1496.6877" y="-85.8" font-family="Times,serif" font-size="14.00" fill="#000000">UserComment</text>
</g>
<!-- Internship&#45;&gt;UserComment -->
<g id="edge5" class="edge">
<title>Internship&#45;&gt;UserComment</title>
<path fill="none" stroke="#76687a" d="M1287.9567,-149.1679C1331.1931,-136.9119 1396.4014,-118.4276 1442.4075,-105.3865"/>
<ellipse fill="none" stroke="#76687a" cx="1284.0147" cy="-150.2852" rx="4" ry="4"/>
<polygon fill="#76687a" stroke="#76687a" points="1442.5873,-105.3356 1453.4355,-106.9378 1447.3977,-103.972 1452.2082,-102.6084 1452.2082,-102.6084 1452.2082,-102.6084 1447.3977,-103.972 1450.9809,-98.2789 1442.5873,-105.3356 1442.5873,-105.3356"/>
</g>
<!-- InternshipNotificationHandler -->
<g id="node11" class="node">
<title>InternshipNotificationHandler</title>
<polygon fill="none" stroke="#000000" points="2200.9262,-270.5 2016.4493,-270.5 2016.4493,-234.5 2200.9262,-234.5 2200.9262,-270.5"/>
<text text-anchor="middle" x="2108.6877" y="-248.3" font-family="Times,serif" font-size="14.00" fill="#000000">InternshipNotificationHandler</text>
</g>
<!-- InternshipOffer -->
<g id="node12" class="node">
<title>InternshipOffer</title>
<ellipse fill="none" stroke="#000000" cx="2283.6877" cy="-252.5" rx="64.9106" ry="18"/>
<text text-anchor="middle" x="2283.6877" y="-248.3" font-family="Times,serif" font-size="14.00" fill="#000000">InternshipOffer</text>
</g>
<!-- InternshipRating -->
<g id="node13" class="node">
<title>InternshipRating</title>
<ellipse fill="none" stroke="#000000" cx="415.6877" cy="-252.5" rx="69.5909" ry="18"/>
<text text-anchor="middle" x="415.6877" y="-248.3" font-family="Times,serif" font-size="14.00" fill="#000000">InternshipRating</text>
</g>
<!-- InternshipRating&#45;&gt;Internship -->
<g id="edge9" class="edge">
<title>InternshipRating&#45;&gt;Internship</title>
<path fill="none" stroke="#6ed5a3" d="M451.6937,-232.295C464.5623,-225.9893 479.4162,-219.7176 493.6877,-216 624.5933,-181.9006 1035.444,-167.6008 1186.3605,-163.4076"/>
<ellipse fill="none" stroke="#6ed5a3" cx="447.9367" cy="-234.1906" rx="4" ry="4"/>
<polygon fill="#6ed5a3" stroke="#6ed5a3" points="1186.7736,-163.3964 1196.8929,-167.6214 1191.7717,-163.2597 1196.7699,-163.123 1196.7699,-163.123 1196.7699,-163.123 1191.7717,-163.2597 1196.6468,-158.6247 1186.7736,-163.3964 1186.7736,-163.3964"/>
</g>
<!-- InternshipState -->
<g id="node14" class="node">
<title>InternshipState</title>
<ellipse fill="none" stroke="#000000" cx="566.6877" cy="-252.5" rx="63.7942" ry="18"/>
<text text-anchor="middle" x="566.6877" y="-248.3" font-family="Times,serif" font-size="14.00" fill="#000000">InternshipState</text>
</g>
<!-- InternshipState&#45;&gt;Internship -->
<g id="edge10" class="edge">
<title>InternshipState&#45;&gt;Internship</title>
<path fill="none" stroke="#256cea" d="M600.6221,-232.2293C612.5796,-225.9921 626.3673,-219.7796 639.6877,-216 741.7051,-187.0528 1057.5397,-170.1893 1186.7366,-164.345"/>
<ellipse fill="none" stroke="#256cea" cx="596.957" cy="-234.2001" rx="4" ry="4"/>
<polygon fill="#256cea" stroke="#256cea" points="1186.8244,-164.3412 1197.0154,-168.3899 1191.8194,-164.1178 1196.8144,-163.8944 1196.8144,-163.8944 1196.8144,-163.8944 1191.8194,-164.1178 1196.6134,-159.3989 1186.8244,-164.3412 1186.8244,-164.3412"/>
</g>
<!-- LdapAuthentication -->
<g id="node15" class="node">
<title>LdapAuthentication</title>
<polygon fill="none" stroke="#000000" points="2494.6536,-270.5 2366.7219,-270.5 2366.7219,-234.5 2494.6536,-234.5 2494.6536,-270.5"/>
<text text-anchor="middle" x="2430.6877" y="-248.3" font-family="Times,serif" font-size="14.00" fill="#000000">LdapAuthentication</text>
</g>
<!-- Notification -->
<g id="node16" class="node">
<title>Notification</title>
<ellipse fill="none" stroke="#000000" cx="1725.6877" cy="-90" rx="52.2106" ry="18"/>
<text text-anchor="middle" x="1725.6877" y="-85.8" font-family="Times,serif" font-size="14.00" fill="#000000">Notification</text>
</g>
<!-- Orientation -->
<g id="node17" class="node">
<title>Orientation</title>
<ellipse fill="none" stroke="#000000" cx="698.6877" cy="-252.5" rx="50.2637" ry="18"/>
<text text-anchor="middle" x="698.6877" y="-248.3" font-family="Times,serif" font-size="14.00" fill="#000000">Orientation</text>
</g>
<!-- Orientation&#45;&gt;Internship -->
<g id="edge11" class="edge">
<title>Orientation&#45;&gt;Internship</title>
<path fill="none" stroke="#af753b" d="M726.7988,-231.5946C736.1809,-225.6017 746.9821,-219.6963 757.6877,-216 835.8498,-189.0134 1076.8039,-171.7851 1186.8428,-165.1241"/>
<ellipse fill="none" stroke="#af753b" cx="723.258" cy="-233.9463" rx="4" ry="4"/>
<polygon fill="#af753b" stroke="#af753b" points="1187.091,-165.1094 1197.3418,-169.0045 1192.0821,-164.8109 1197.0732,-164.5125 1197.0732,-164.5125 1197.0732,-164.5125 1192.0821,-164.8109 1196.8046,-160.0205 1187.091,-165.1094 1187.091,-165.1094"/>
</g>
<!-- PaymentState -->
<g id="node18" class="node">
<title>PaymentState</title>
<ellipse fill="none" stroke="#000000" cx="825.6877" cy="-252.5" rx="58.9755" ry="18"/>
<text text-anchor="middle" x="825.6877" y="-248.3" font-family="Times,serif" font-size="14.00" fill="#000000">PaymentState</text>
</g>
<!-- PaymentState&#45;&gt;Internship -->
<g id="edge12" class="edge">
<title>PaymentState&#45;&gt;Internship</title>
<path fill="none" stroke="#721e9d" d="M858.4815,-232.0009C869.3382,-226.0137 881.7127,-220.0092 893.6877,-216 993.5052,-182.5813 1116.4079,-169.6995 1186.5364,-164.8392"/>
<ellipse fill="none" stroke="#721e9d" cx="854.7096" cy="-234.143" rx="4" ry="4"/>
<polygon fill="#721e9d" stroke="#721e9d" points="1186.9309,-164.8131 1197.2064,-168.6425 1191.92,-164.4827 1196.909,-164.1524 1196.909,-164.1524 1196.909,-164.1524 1191.92,-164.4827 1196.6117,-159.6622 1186.9309,-164.8131 1186.9309,-164.8131"/>
</g>
<!-- Quicksearch -->
<g id="node20" class="node">
<title>Quicksearch</title>
<ellipse fill="none" stroke="#000000" cx="2566.6877" cy="-252.5" rx="54.1058" ry="18"/>
<text text-anchor="middle" x="2566.6877" y="-248.3" font-family="Times,serif" font-size="14.00" fill="#000000">Quicksearch</text>
</g>
<!-- ReadingProf -->
<g id="node21" class="node">
<title>ReadingProf</title>
<ellipse fill="none" stroke="#000000" cx="957.6877" cy="-252.5" rx="54.6162" ry="18"/>
<text text-anchor="middle" x="957.6877" y="-248.3" font-family="Times,serif" font-size="14.00" fill="#000000">ReadingProf</text>
</g>
<!-- ReadingProf&#45;&gt;Internship -->
<g id="edge13" class="edge">
<title>ReadingProf&#45;&gt;Internship</title>
<path fill="none" stroke="#cc4936" d="M989.4583,-232.0637C999.4799,-226.2579 1010.7865,-220.3412 1021.6877,-216 1077.2939,-193.8562 1144.5073,-179.0066 1190.1015,-170.5749"/>
<ellipse fill="none" stroke="#cc4936" cx="985.8517" cy="-234.2052" rx="4" ry="4"/>
<polygon fill="#cc4936" stroke="#cc4936" points="1190.2211,-170.5533 1200.8629,-173.1995 1195.1411,-169.6624 1200.0611,-168.7715 1200.0611,-168.7715 1200.0611,-168.7715 1195.1411,-169.6624 1199.2593,-164.3435 1190.2211,-170.5533 1190.2211,-170.5533"/>
</g>
<!-- RegistrationState -->
<g id="node22" class="node">
<title>RegistrationState</title>
<ellipse fill="none" stroke="#000000" cx="1101.6877" cy="-252.5" rx="71.0358" ry="18"/>
<text text-anchor="middle" x="1101.6877" y="-248.3" font-family="Times,serif" font-size="14.00" fill="#000000">RegistrationState</text>
</g>
<!-- RegistrationState&#45;&gt;Internship -->
<g id="edge14" class="edge">
<title>RegistrationState&#45;&gt;Internship</title>
<path fill="none" stroke="#9c3b59" d="M1134.853,-231.2131C1157.5086,-216.6717 1187.3939,-197.49 1209.9564,-183.0084"/>
<ellipse fill="none" stroke="#9c3b59" cx="1131.2446" cy="-233.5291" rx="4" ry="4"/>
<polygon fill="#9c3b59" stroke="#9c3b59" points="1210.1047,-182.9133 1220.9511,-181.2987 1214.3125,-180.2125 1218.5204,-177.5117 1218.5204,-177.5117 1218.5204,-177.5117 1214.3125,-180.2125 1216.0897,-173.7246 1210.1047,-182.9133 1210.1047,-182.9133"/>
</g>
<!-- ReportState -->
<g id="node23" class="node">
<title>ReportState</title>
<ellipse fill="none" stroke="#000000" cx="1242.6877" cy="-252.5" rx="51.7174" ry="18"/>
<text text-anchor="middle" x="1242.6877" y="-248.3" font-family="Times,serif" font-size="14.00" fill="#000000">ReportState</text>
</g>
<!-- ReportState&#45;&gt;Internship -->
<g id="edge15" class="edge">
<title>ReportState&#45;&gt;Internship</title>
<path fill="none" stroke="#cb70bf" d="M1242.6877,-225.9687C1242.6877,-214.8402 1242.6877,-201.878 1242.6877,-190.5429"/>
<ellipse fill="none" stroke="#cb70bf" cx="1242.6878" cy="-230.186" rx="4" ry="4"/>
<polygon fill="#cb70bf" stroke="#cb70bf" points="1242.6878,-190.2868 1247.1877,-180.2867 1242.6878,-185.2868 1242.6877,-180.2868 1242.6877,-180.2868 1242.6877,-180.2868 1242.6878,-185.2868 1238.1877,-180.2868 1242.6878,-190.2868 1242.6878,-190.2868"/>
</g>
<!-- Semester -->
<g id="node24" class="node">
<title>Semester</title>
<ellipse fill="none" stroke="#000000" cx="1354.6877" cy="-252.5" rx="42.5456" ry="18"/>
<text text-anchor="middle" x="1354.6877" y="-248.3" font-family="Times,serif" font-size="14.00" fill="#000000">Semester</text>
</g>
<!-- Semester&#45;&gt;Internship -->
<g id="edge16" class="edge">
<title>Semester&#45;&gt;Internship</title>
<path fill="none" stroke="#2eba0a" d="M1328.4422,-231.2926C1311.2714,-217.418 1288.841,-199.2935 1271.2273,-185.061"/>
<ellipse fill="none" stroke="#2eba0a" cx="1331.811" cy="-234.0147" rx="4" ry="4"/>
<polygon fill="#2eba0a" stroke="#2eba0a" points="1270.7898,-184.7075 1265.8399,-174.9223 1266.9008,-181.565 1263.0117,-178.4225 1263.0117,-178.4225 1263.0117,-178.4225 1266.9008,-181.565 1260.1834,-181.9226 1270.7898,-184.7075 1270.7898,-184.7075"/>
</g>
<!-- Student -->
<g id="node25" class="node">
<title>Student</title>
<ellipse fill="none" stroke="#000000" cx="1840.6877" cy="-252.5" rx="37.2594" ry="18"/>
<text text-anchor="middle" x="1840.6877" y="-248.3" font-family="Times,serif" font-size="14.00" fill="#000000">Student</text>
</g>
<!-- Student&#45;&gt;Internship -->
<g id="edge17" class="edge">
<title>Student&#45;&gt;Internship</title>
<path fill="none" stroke="#9b96c2" d="M1818.5578,-230.7648C1811.4679,-225.0128 1803.2269,-219.4516 1794.6877,-216 1705.7739,-180.0598 1421.0232,-167.356 1299.0304,-163.4877"/>
<ellipse fill="none" stroke="#9b96c2" cx="1821.6834" cy="-233.4431" rx="4" ry="4"/>
<polygon fill="#9b96c2" stroke="#9b96c2" points="1298.7826,-163.4802 1288.9262,-158.6738 1293.785,-163.3259 1288.7873,-163.1716 1288.7873,-163.1716 1288.7873,-163.1716 1293.785,-163.3259 1288.6485,-167.6695 1298.7826,-163.4802 1298.7826,-163.4802"/>
</g>
<!-- User -->
<g id="node26" class="node">
<title>User</title>
<ellipse fill="none" stroke="#000000" cx="1670.6877" cy="-162" rx="27" ry="18"/>
<text text-anchor="middle" x="1670.6877" y="-157.8" font-family="Times,serif" font-size="14.00" fill="#000000">User</text>
</g>
<!-- Student&#45;&gt;User -->
<g id="edge18" class="edge">
<title>Student&#45;&gt;User</title>
<path fill="none" stroke="#c874c3" d="M1816.2382,-231.1803C1809.506,-225.8534 1802.0296,-220.4082 1794.6877,-216 1764.9511,-198.1453 1728.2451,-182.916 1702.5139,-173.2272"/>
<ellipse fill="none" stroke="#c874c3" cx="1819.5859" cy="-233.9019" rx="4" ry="4"/>
<ellipse fill="#c874c3" stroke="#c874c3" cx="1698.6506" cy="-171.7934" rx="4" ry="4"/>
</g>
<!-- User&#45;&gt;Favorite -->
<g id="edge20" class="edge">
<title>User&#45;&gt;Favorite</title>
<path fill="none" stroke="#d387ae" d="M1653.2041,-139.1123C1647.367,-131.4711 1640.8326,-122.917 1634.8733,-115.1156"/>
<ellipse fill="none" stroke="#d387ae" cx="1655.7792" cy="-142.4834" rx="4" ry="4"/>
<polygon fill="#d387ae" stroke="#d387ae" points="1634.763,-114.9712 1632.2686,-104.2928 1631.7278,-110.9979 1628.6926,-107.0245 1628.6926,-107.0245 1628.6926,-107.0245 1631.7278,-110.9979 1625.1166,-109.7562 1634.763,-114.9712 1634.763,-114.9712"/>
</g>
<!-- User&#45;&gt;Notification -->
<g id="edge21" class="edge">
<title>User&#45;&gt;Notification</title>
<path fill="none" stroke="#47ce10" d="M1688.0963,-139.2107C1693.8434,-131.6871 1700.2733,-123.2698 1706.1677,-115.5536"/>
<ellipse fill="none" stroke="#47ce10" cx="1685.5963" cy="-142.4834" rx="4" ry="4"/>
<polygon fill="#47ce10" stroke="#47ce10" points="1706.2254,-115.4779 1715.8719,-110.2629 1709.2607,-111.5045 1712.2959,-107.5312 1712.2959,-107.5312 1712.2959,-107.5312 1709.2607,-111.5045 1708.7198,-104.7995 1706.2254,-115.4779 1706.2254,-115.4779"/>
</g>
<!-- User&#45;&gt;UserComment -->
<g id="edge19" class="edge">
<title>User&#45;&gt;UserComment</title>
<path fill="none" stroke="#9590bd" d="M1639.9053,-149.2625C1612.6097,-137.9677 1572.4014,-121.3298 1541.5315,-108.556"/>
<ellipse fill="none" stroke="#9590bd" cx="1643.8858" cy="-150.9095" rx="4" ry="4"/>
<polygon fill="#9590bd" stroke="#9590bd" points="1541.5158,-108.5496 1533.9962,-100.5679 1536.8957,-106.6378 1532.2756,-104.726 1532.2756,-104.726 1532.2756,-104.726 1536.8957,-106.6378 1530.555,-108.8841 1541.5158,-108.5496 1541.5158,-108.5496"/>
</g>
<!-- UserComment&#45;&gt;Answer -->
<g id="edge22" class="edge">
<title>UserComment&#45;&gt;Answer</title>
<path fill="none" stroke="#08fde1" d="M1448.8256,-73.4323C1411.8937,-60.6482 1361.4752,-43.1957 1327.143,-31.3114"/>
<ellipse fill="none" stroke="#08fde1" cx="1452.8033" cy="-74.8092" rx="4" ry="4"/>
<ellipse fill="#08fde1" stroke="#08fde1" cx="1322.9912" cy="-29.8743" rx="4" ry="4"/>
</g>
</g>
</svg>
